<svg width="22" height="22" viewBox="0 0 22 22" fill="none" xmlns="http://www.w3.org/2000/svg">
<path fill-rule="evenodd" clip-rule="evenodd" d="M11 2C9.8181 2 8.64778 2.23279 7.55585 2.68508C6.46392 3.13738 5.47177 3.80031 4.63604 4.63604C3.80031 5.47177 3.13738 6.46392 2.68508 7.55585C2.23279 8.64778 2 9.8181 2 11C2 12.1819 2.23279 13.3522 2.68508 14.4442C3.13738 15.5361 3.80031 16.5282 4.63604 17.364C5.47177 18.1997 6.46392 18.8626 7.55585 19.3149C8.64778 19.7672 9.8181 20 11 20C13.3869 20 15.6761 19.0518 17.364 17.364C19.0518 15.6761 20 13.3869 20 11C20 8.61305 19.0518 6.32387 17.364 4.63604C15.6761 2.94821 13.3869 2 11 2ZM0 11C0 4.925 4.925 0 11 0C17.075 0 22 4.925 22 11C22 17.075 17.075 22 11 22C4.925 22 0 17.075 0 11Z" fill="#6F62CB"/>
<path fill-rule="evenodd" clip-rule="evenodd" d="M16.608 8.00006L8.882 15.7261L5 11.0931L6.511 9.78306L8.987 12.7931L15.194 6.58606L16.608 8.00006Z" fill="#6F62CB"/>
</svg>
