<svg width="20" height="17" viewBox="0 0 20 17" fill="none" xmlns="http://www.w3.org/2000/svg">
<path fill-rule="evenodd" clip-rule="evenodd" d="M1.75722 1.75785C2.7686 0.746238 4.10813 0.129251 5.53428 0.0181369C6.96043 -0.0929775 8.37936 0.309092 9.53522 1.15185C10.7565 0.268275 12.2655 -0.123434 13.7623 0.0545811C15.2591 0.232596 16.6341 0.967302 17.614 2.11266C18.594 3.25802 19.1071 4.73017 19.0513 6.2365C18.9956 7.74283 18.3751 9.17304 17.3132 10.2428L11.6562 15.8998C11.0936 16.4623 10.3307 16.7782 9.53522 16.7782C8.73973 16.7782 7.9768 16.4623 7.41422 15.8998L1.75722 10.2438C0.632087 9.11864 0 7.59258 0 6.00135C0 4.41012 0.632087 2.88306 1.75722 1.75785Z" fill="#6F62CB"/>
</svg>
