<svg width="24" height="24" viewBox="0 0 24 24" fill="none" xmlns="http://www.w3.org/2000/svg">
<rect x="5" y="6" width="14" height="10" fill="white"/>
<ellipse cx="12" cy="5.5" rx="6" ry="1.5" fill="white"/>
<path d="M17.084 15.8119C18.0244 14.8183 18.653 13.5709 18.8922 12.2239C19.1314 10.8769 18.9706 9.48932 18.4297 8.2327C17.8888 6.97609 16.9916 5.9055 15.8489 5.15328C14.7062 4.40106 13.3681 4.00017 12 4.00017C10.6319 4.00017 9.29384 4.40106 8.15112 5.15328C7.00841 5.9055 6.11117 6.97609 5.5703 8.2327C5.02943 9.48932 4.86863 10.8769 5.1078 12.2239C5.34696 13.5709 5.9756 14.8183 6.916 15.8119C7.45595 14.951 8.2057 14.2414 9.09495 13.7495C9.9842 13.2577 10.9838 12.9997 12 12.9999C13.0162 12.9997 14.0158 13.2577 14.9051 13.7495C15.7943 14.2414 16.5441 14.951 17.084 15.8119ZM12 23.7279L5.636 17.3639C4.37734 16.1052 3.52019 14.5016 3.17293 12.7558C2.82567 11.0099 3.00391 9.20035 3.6851 7.55582C4.36629 5.91129 5.51984 4.50569 6.99988 3.51677C8.47992 2.52784 10.22 2 12 2C13.78 2 15.5201 2.52784 17.0001 3.51677C18.4802 4.50569 19.6337 5.91129 20.3149 7.55582C20.9961 9.20035 21.1743 11.0099 20.8271 12.7558C20.4798 14.5016 19.6227 16.1052 18.364 17.3639L12 23.7279ZM12 11.9999C11.2044 11.9999 10.4413 11.6839 9.87868 11.1212C9.31607 10.5586 9 9.79557 9 8.99992C9 8.20427 9.31607 7.44121 9.87868 6.8786C10.4413 6.31599 11.2044 5.99992 12 5.99992C12.7957 5.99992 13.5587 6.31599 14.1213 6.8786C14.6839 7.44121 15 8.20427 15 8.99992C15 9.79557 14.6839 10.5586 14.1213 11.1212C13.5587 11.6839 12.7957 11.9999 12 11.9999Z" fill="#6F62CB"/>
</svg>
