<svg width="16" height="16" viewBox="0 0 16 16" fill="none" xmlns="http://www.w3.org/2000/svg">
<path d="M7.99999 12L4.95499 7.7C4.45658 7.11153 4.13561 6.39358 4.02946 5.62975C3.92332 4.86591 4.03637 4.08764 4.35544 3.38558C4.67451 2.68351 5.18648 2.08654 5.83172 1.6642C6.47695 1.24185 7.2289 1.01151 7.99999 1C9.06886 1.01056 10.09 1.4443 10.8397 2.20621C11.5894 2.96812 12.0067 3.9961 12 5.065C12.0004 5.99747 11.6829 6.90222 11.1 7.63L7.99999 12ZM7.99999 2C7.19591 2.00923 6.42837 2.33719 5.86589 2.91185C5.30341 3.48652 4.99198 4.26091 4.99999 5.065C5.00377 5.79883 5.26776 6.50753 5.74499 7.065L7.99999 10.26L10.315 7C10.755 6.45072 10.9964 5.7688 11 5.065C11.008 4.26091 10.6966 3.48652 10.1341 2.91185C9.5716 2.33719 8.80406 2.00923 7.99999 2Z" fill="#6F62CB"/>
<path d="M8 5.5C8.55228 5.5 9 5.05228 9 4.5C9 3.94772 8.55228 3.5 8 3.5C7.44772 3.5 7 3.94772 7 4.5C7 5.05228 7.44772 5.5 8 5.5Z" fill="#6F62CB"/>
<path d="M14 6H13V7H14V14H2V7H3V6H2C1.73478 6 1.48043 6.10536 1.29289 6.29289C1.10536 6.48043 1 6.73478 1 7V14C1 14.2652 1.10536 14.5196 1.29289 14.7071C1.48043 14.8946 1.73478 15 2 15H14C14.2652 15 14.5196 14.8946 14.7071 14.7071C14.8946 14.5196 15 14.2652 15 14V7C15 6.73478 14.8946 6.48043 14.7071 6.29289C14.5196 6.10536 14.2652 6 14 6Z" fill="#6F62CB"/>
</svg>
