<?xml version="1.0" encoding="UTF-8"?>
<svg xmlns="http://www.w3.org/2000/svg" width="512" height="512" viewBox="0 0 244 278" preserveAspectRatio="xMidYMid meet" shape-rendering="geometricPrecision">
  <path d="m121.8 3.5h-0.82c-64.61 0-119.5 53.54-119.5 120.2 0 49.05 31.01 90.9 74.78 109.3l4.63 1.7 13.81 24.58c6.56 11.68 16.8 15.23 26.28 15.23 11.18 0 21.68-5.97 27.61-16.73l14.4-24.36c43.46-15.73 79.49-58.38 79.49-109.7 0-65.66-53.38-120.2-120.7-120.2z" fill="#6E5CC7" stroke="#7662CE" stroke-width="2"/>
  <path d="m121.5 43.22 22.26 48.69 53.76 5.9-39.21 36.75 11.45 51.26-48.26-27.31-47.26 27.31 11.45-51.26-39.21-36.22 52.76-6.43 22.26-48.69z" fill="#fff"/>
</svg>
